<?xml version="1.0" encoding="UTF-8"?><svg version="1.2" xmlns="http://www.w3.org/2000/svg" viewBox="0 0 39 39" width="39" height="39">
	<title>java-icon-svg</title>
	<style>
		.s0 { fill: #4e7896 } 
		.s1 { fill: #f58219 } 
	</style>
	<path id="Layer" fill-rule="evenodd" class="s0" d="m14.2 30.2c0 0-1.5 0.9 1 1.1 3.1 0.4 4.7 0.3 8.1-0.3q0.2 0.2 0.5 0.3 0.3 0.1 0.5 0.3 0.3 0.1 0.6 0.2 0.2 0.1 0.5 0.2c-7.6 3.3-17.2-0.2-11.2-1.8zm-1-4.3c0 0-1.6 1.3 0.9 1.5 3.3 0.3 5.9 0.4 10.4-0.5q0.2 0.2 0.4 0.3 0.1 0.2 0.3 0.3 0.2 0.1 0.5 0.2 0.2 0.1 0.4 0.2c-9.2 2.7-19.5 0.2-12.9-2zm-6.4 10.4c-5.7-0.9 2.8-4.1 4.3-3.1 0 0-0.5 0-1.3 0.2-0.8 0.1-3.4 1-2.1 1.6 3.9 1.7 17.9 1.3 22.2 0 2.4-0.7 1.3-1.7 1.3-1.7 4 1.9-8.8 5.5-24.4 3zm8.1-14.8q0 0 0 0 0 0 0 0zm-2.6 2.3c2 0.2 5.8 0.2 9.4-0.1 2.9-0.3 5.9-0.8 5.9-0.8 0 0-1.1 0.5-1.8 0.9-7.2 1.9-21.1 1.1-17.1-0.9 3.4-1.6 6.2-1.4 6.2-1.4-0.1 0-7.1 1.7-2.6 2.3zm15.3 4.8c7.3-3.8 3.9-7.4 1.5-7-0.6 0.2-0.8 0.3-0.8 0.3 0 0 0.2-0.4 0.6-0.5 4.7-1.7 8.3 4.8-1.5 7.4q0.1 0 0.2-0.2zm-17.5 9.2c4.3 0.7 11.7 0.9 17.7-0.2 5.3-1 5.8-2.3 5.8-2.3-0.2 3.3-11 4-18 3.6-4.6-0.3-5.5-1.1-5.5-1.1z"/>
	<path id="Layer" fill-rule="evenodd" class="s1" d="m23.2 0c0 0 4 4.1-3.9 10.3-6.3 5-1.4 7.9 0 11.1-3.7-3.3-6.4-6.2-4.5-9 2.6-4 10-5.9 8.4-12.4zm4.8 8c-8.4 4.9-6.9 6.3-4.8 9.3 2.2 3-2.6 5.5-2.6 5.5 0 0 2.4-2 0.5-4.1-6.4-7.4 6.9-10.7 6.9-10.7z"/>
</svg>