<?xml version="1.0" encoding="utf-8"?><svg fill="none" height="40" viewBox="0 0 66 40" width="66" xmlns="http://www.w3.org/2000/svg"><path d="m15.6045 10.4423h12.4219v.9862h-11.2829v7.4218h10.6099v.9862h-10.6099v8.1484h11.4122v.9862h-12.5512zm13.5345 0h1.32l5.8486 8.1484 5.9779-8.1484 8.1309-10.350259-13.3583 19.355159 6.8836 9.5239h-1.3717l-6.2624-8.6675-6.2883 8.6675h-1.3459l6.9354-9.5239-6.4693-9.0049zm15.2946.9862v-.9862h14.1552v.9862h-6.521v17.5422h-1.139v-17.5422h-6.4947zm-44.3689333-.9862h1.4234633l19.62657 29.3346-8.1109-10.8058-11.7489-17.1275-.05173 17.1275h-1.1385033zm58.4100333 17.2449c-.2333 0-.4076-.18-.4076-.4125 0-.2329.1743-.4129.4071-.4129.2355 0 .4072.18.4072.4129 0 .2325-.1717.4125-.4072.4125zm1.1184-1.0858h.6096c.0085.3298.2497.5511.6038.5511.396 0 .6203-.2378.6203-.684v-2.8249h.6203v2.8276c0 .8035-.4651 1.2662-1.2352 1.2662-.7225 0-1.2184-.4489-1.2184-1.136zm3.2652-.0356h.615c.0526.3791.4236.62.9583.62.4981 0 .8638-.2578.8638-.612 0-.3044-.2323-.4875-.7617-.612l-.515-.1244c-.7225-.1689-1.0525-.5182-1.0525-1.1054 0-.712.5815-1.1857 1.4538-1.1857.8116 0 1.4047.4737 1.4404 1.1466h-.6038c-.058-.368-.3791-.5982-.8446-.5982-.4906 0-.817.2356-.817.5956 0 .2853.2105.4489.7314.5706l.4401.108c.8197.1911 1.1577.5236 1.1577 1.1245 0 .7644-.5931 1.244-1.5399 1.244-.8861 0-1.4818-.4574-1.526-1.172z" fill="#262b33"/></svg>