<?xml version="1.0" encoding="utf-8"?><svg fill="none" height="40" viewBox="0 0 39 40" width="39" xmlns="http://www.w3.org/2000/svg"><path d="m39 20c0 11.0487-8.7275 20-19.5 20-10.77253 0-19.5-8.9513-19.5-20 0-11.04875 8.72747-20 19.5-20 10.7725 0 19.5 8.95125 19.5 20zm-10.9748-12.60375c-1.9805.07-3.7063 1.19-4.9957 2.74005-1.4284 1.7-2.3741 3.7162-3.0603 5.7687-1.2187-1.0213-2.1584-2.3563-4.1194-2.9362-.7742-.2427-1.5939-.2913-2.3903-.1416-.7963.1496-1.546.4931-2.1861 1.0015-.6643.5328-1.1524 1.2626-1.39787 2.09-.58378 1.96.62277 3.71 1.16877 4.335l1.1993 1.315c.2425.255.8446.9313.546 1.895-.3108 1.055-1.5418 1.7313-2.81169 1.3351-.5655-.1763-1.37841-.6113-1.19438-1.2188.07678-.2537.24863-.435.34247-.65.08287-.1837.12675-.3262.15234-.4038.22913-.775-.08287-1.785-.89578-2.0387-.75562-.2412-1.52222-.0512-1.82812.9438-.33638 1.1337.19012 3.185 3.0225 4.0837 3.31986 1.0413 6.11816-.8087 6.51786-3.2237.2486-1.5101-.4192-2.6363-1.638-4.0751l-.9957-1.1337c-.6033-.6112-.8056-1.6662-.184-2.4737.5265-.6851 1.276-.97 2.5008-.6313 1.7953.5013 2.5899 1.77 3.9232 2.7987-.5521 1.85-.9153 3.7051-1.2383 5.3713l-.1962 1.2437c-.9518 5.1163-1.6758 7.9301-3.5673 9.5451-.3814.2737-.9262.69-1.7391.7212-.4327.0062-.5789-.2913-.5789-.4287-.0134-.3063.2425-.45.4131-.5863.2474-.1362.635-.3788.6033-1.1263-.0256-.885-.7422-1.6537-1.7781-1.62-.7739.025-1.95491.7738-1.90982 2.1413.04388 1.4187 1.33212 2.48 3.26752 2.4088 1.042-.0338 3.3527-.4688 5.6306-3.2488 2.6532-3.1837 3.3966-6.8362 3.9548-9.5112l.6228-3.5238c.3473.04.7166.0663 1.1225.0788 3.3003.0712 4.9518-1.6851 4.9761-2.9613.0195-.775-.4936-1.5363-1.2053-1.5162-.3059.0079-.6006.1195-.8381.3174-.2374.1979-.4043.4709-.4745.7763-.1524.71 1.053 1.355.1133 1.98-.6666.4412-1.8659.755-3.549.5l.3059-1.7387c.6289-3.2938 1.3955-7.3438 4.3229-7.44005.2158-.01375.9958.005 1.0092.53375.0061.175-.0305.22875-.234.625-.1897.25814-.2862.57579-.273.8988.0243.84.6471 1.3937 1.5551 1.36 1.2053-.0388 1.549-1.25 1.5356-1.8688-.0499-1.45875-1.549-2.37-3.5295-2.31z" fill="#262b33"/></svg>